<?xml version="1.0" encoding="UTF-8"?>
<!DOCTYPE svg PUBLIC "-//W3C//DTD SVG 1.1//EN" "http://www.w3.org/Graphics/SVG/1.1/DTD/svg11.dtd">
<svg xmlns="http://www.w3.org/2000/svg" version="1.1" width="70px" height="26px" style="shape-rendering:geometricPrecision; text-rendering:geometricPrecision; image-rendering:optimizeQuality; fill-rule:evenodd; clip-rule:evenodd" xmlns:xlink="http://www.w3.org/1999/xlink">
<g><path style="opacity:0.841" fill="#0e0e0e" d="M 46.5,21.5 C 47.6752,19.6162 48.3418,17.4495 48.5,15C 48.4944,12.9674 48.1611,11.134 47.5,9.5C 47.1667,6.5 48.5,5.16667 51.5,5.5C 51.5,10.8333 51.5,16.1667 51.5,21.5C 49.8333,21.5 48.1667,21.5 46.5,21.5 Z"/></g>
<g><path style="opacity:0.883" fill="#0f0f0f" d="M 15.5,12.5 C 15.9348,15.1573 16.9348,17.4907 18.5,19.5C 18.5299,20.4972 18.0299,21.1639 17,21.5C 14.9758,19.9841 12.8091,18.6508 10.5,17.5C 9.15516,18.3467 8.15516,19.5134 7.5,21C 6.51654,21.5908 5.84987,21.2575 5.5,20C 6.23518,15.4625 7.56851,11.1292 9.5,7C 13.1718,6.83257 15.1718,8.6659 15.5,12.5 Z"/></g>
<g><path style="opacity:0.576" fill="#000001" d="M 30.5,6.5 C 31.3764,6.36912 32.0431,6.70245 32.5,7.5C 30.1916,8.87342 29.5249,8.54009 30.5,6.5 Z"/></g>
<g><path style="opacity:1" fill="#252525" d="M 34.5,5.5 C 35.8333,5.5 37.1667,5.5 38.5,5.5C 38.5,10.8333 38.5,16.1667 38.5,21.5C 37.1667,21.5 35.8333,21.5 34.5,21.5C 34.5,16.1667 34.5,10.8333 34.5,5.5 Z"/></g>
<g><path style="opacity:0.781" fill="#030303" d="M 56.5,9.5 C 65.3048,9.94438 67.3048,13.7777 62.5,21C 55,22.8333 52.1667,20 54,12.5C 54.6979,11.3094 55.5313,10.3094 56.5,9.5 Z M 58.5,12.5 C 60.7224,12.5587 61.7224,13.7253 61.5,16C 60.1667,20.6667 58.8333,20.6667 57.5,16C 57.6483,14.7441 57.9816,13.5774 58.5,12.5 Z"/></g>
<g><path style="opacity:0.891" fill="#171718" d="M 20.5,10.5 C 22.924,10.1924 25.2573,10.5258 27.5,11.5C 26.7579,12.2868 25.9246,12.9535 25,13.5C 24.7132,15.8907 24.2132,18.2241 23.5,20.5C 22.675,21.3857 21.675,21.719 20.5,21.5C 20.5,17.8333 20.5,14.1667 20.5,10.5 Z"/></g>
<g><path style="opacity:0.903" fill="#171718" d="M 29.5,9.5 C 30.5,9.5 31.5,9.5 32.5,9.5C 32.5,13.5 32.5,17.5 32.5,21.5C 30.8762,21.6399 29.7096,20.9733 29,19.5C 28.2534,16.0764 28.42,12.7431 29.5,9.5 Z"/></g>
<g><path style="opacity:1" fill="#1f1f1f" d="M 47.5,9.5 C 48.1611,11.134 48.4944,12.9674 48.5,15C 48.3418,17.4495 47.6752,19.6162 46.5,21.5C 41.9732,22.4741 39.6398,20.6408 39.5,16C 39.9551,11.0406 42.6217,8.87395 47.5,9.5 Z M 45.5,12.5 C 47.9398,14.5726 48.1065,16.906 46,19.5C 44.1932,17.294 44.0265,14.9606 45.5,12.5 Z"/></g>
<g><path style="opacity:0.043" fill="#5c5c5c" d="M 11.5,14.5 C 12.5573,13.794 12.2239,13.4607 10.5,13.5C 11.6028,8.16179 12.6028,8.32846 13.5,14C 12.9689,15.718 12.3023,15.8847 11.5,14.5 Z"/></g>
<g><path style="opacity:1" fill="#646464" d="M 15.5,12.5 C 17.4484,14.3204 18.4484,16.6538 18.5,19.5C 16.9348,17.4907 15.9348,15.1573 15.5,12.5 Z"/></g>

</svg>
